<?xml version="1.0" standalone="no"?><!DOCTYPE svg PUBLIC "-//W3C//DTD SVG 1.1//EN" "http://www.w3.org/Graphics/SVG/1.1/DTD/svg11.dtd"><svg t="1681208076596" class="icon" viewBox="0 0 1077 1024" version="1.1" xmlns="http://www.w3.org/2000/svg" p-id="2210" xmlns:xlink="http://www.w3.org/1999/xlink" width="210.3515625" height="200"><path d="M216.387368 109.406316L142.336 183.349895l715.722105 715.829894-118.837894 118.89179h238.753684c32.768 0 59.338105-26.570105 59.338105-59.338105v-238.807579l-105.202526 105.202526L216.387368 109.406316zM74.051368 495.616L0 569.667368l329.566316 329.566316-119.107369 118.89179h238.753685c32.768 0 59.338105-26.570105 59.338105-59.338106v-238.807579l-105.202526 105.202527-329.296843-329.512421zM972.8 329.458526L643.341474 0l-73.997474 74.051368 329.512421 329.512421-119.107368 118.89179H1018.610526c32.768 0 59.338105-26.570105 59.338106-59.284211V224.202105l-105.094737 105.256421z" fill="#d81e06" p-id="2211"></path></svg>